<?xml version="1.0" encoding="UTF-8"?>
<svg id="Camada_2" data-name="Camada 2" xmlns="http://www.w3.org/2000/svg" viewBox="0 0 429.99 405.23">
  <defs>
    <style>
      .cls-1 {
        fill: #fff;
        stroke-width: 0px;
      }
    </style>
  </defs>
  <g id="Camada_1-2" data-name="Camada 1">
    <path class="cls-1" d="m418.79,126.66c-15.83-42.24-45.6-73.19-84.33-95.16C282.02,1.75,225.6-6.67,166.58,5.15,109.07,16.68,61.16,44.42,28.21,94.01-2.44,140.12-8.22,190,11.39,241.95c14.61,38.7,41.39,67.71,75.98,89.75,3.61,2.3,4.68,4.65,4.63,8.8-.24,21.38-.11,42.76-.11,64.73,1.36-.79,2.71-1.55,4.04-2.34,18.05-10.84,36.33-21.33,54.05-32.68,8.61-5.51,16.84-9.14,26.98-5.18,1.44.56,3.16.39,4.73.62,34.49,5.08,68.52,2.45,101.85-7.32,48.37-14.18,88.83-40.21,117.29-82.55,31.23-46.47,37.64-96.6,17.96-149.11ZM92.52,214.77c-16.79.13-30.85-13.87-30.81-30.68.04-16.65,13.76-30.43,30.44-30.57,16.79-.14,30.85,13.86,30.82,30.67-.04,16.63-13.79,30.44-30.45,30.58Zm122.54,0c-16.81.04-30.82-14.03-30.68-30.81.14-16.86,14.3-30.75,31.06-30.44,16.71.31,30.34,14.21,30.21,30.81-.13,16.65-13.95,30.41-30.58,30.44Zm122.61,0c-16.84-.01-30.8-14.1-30.61-30.88.19-16.69,14-30.38,30.65-30.37,16.84.01,30.8,14.1,30.61,30.88-.19,16.69-14,30.38-30.65,30.37Z"/>
  </g>
</svg>